<?xml version="1.0" encoding="UTF-8"?>
<svg id="Layer_2" data-name="Layer 2" xmlns="http://www.w3.org/2000/svg" xmlns:xlink="http://www.w3.org/1999/xlink" viewBox="0 0 512 512">
  <defs>
    <clipPath id="clippath">
      <rect width="512" height="512" style="fill: none;"/>
    </clipPath>
  </defs>
  <g id="Layer_1-2" data-name="Layer 1">
    <g style="clip-path: url(#clippath);">
      <g id="Layer_1-2" data-name="Layer 1-2">
        <g>
          <path d="M255.99536,53.91432h0c119.48106,0,216.33955,96.85851,216.33955,216.33955h0c0,119.48104-96.85849,216.33953-216.33955,216.33953h0c-119.48103,0-216.33955-96.85849-216.33955-216.33953h0c0-119.48104,96.85852-216.33955,216.33955-216.33955Z" style="fill: #003428;"/>
          <g>
            <path d="M411.33598,245.5591c-59.45554-50.89444-132.39796-40.8383-163.65222-39.48489,70.50311,2.64386,184.18942,56.71727,163.47913,176.79289-19.65588,75.20859-118.86386,123.01855-179.45248,65.15244-5.75986-4.87857-19.04214-19.9549-19.04214-19.65588.20459,6.4523,9.23779,26.10818,16.76022,34.57486,58.82605,66.37994,159.7966,51.24066,205.7023-13.86456,40.28751-60.03781,34.18143-152.69907-23.7948-203.53056v.01573-.00002Z" style="fill: #a68530;"/>
            <path d="M193.9566,427.40369c-.77113-3.02158-1.558-6.73557-2.76976-18.68018-3.63531-35.95975-2.76976-64.0351-2.76976-64.34985.45638-14.91895.61375-40.00424.59802-73.47748,19.24672-.0787,39.46916-1.49503,58.27524-5.0202,63.9879-11.96036,109.15395-.88129,109.16969-.9285-.73965-.51932-26.02951-25.87213-68.75629-41.43633-17.67299-6.4523-56.22939-20.7103-93.66846-24.73904-1.76257-.18884-3.52516-.34622-5.28773-.50362-.09442-16.68155-.20459-34.41748-.33049-53.16061-.09442-9.5368.1259-20.01785.03148-29.72777.09442-6.35787-.01573-13.15639-.1259-20.03358-.03148-9.39517-.11017-18.69591.09442-27.72914.99147-44.26903-33.37881-62.79185-53.50682-65.23113-3.93433-.47212-7.3808,0-7.3808,0-1.08588.09443-3.06877.61375-3.06877.61375,8.60831,10.44957,8.60831,27.05243,8.60831,43.67102v152.08532c-11.01611.89703-18.93198,1.85699-21.78042,1.73111-9.86729-.44064,0,0-16.60286-.72392-22.14239-.97571-43.7025-14.30521-43.49791-18.88477-2.26618,49.60399,26.51736,72.59621,57.25232,81.67659,5.77559,1.69962,14.28948,3.39926,24.62887,4.81561v88.0817c0,1.84128-1.11735,51.22491,5.53954,71.95096,2.14027,6.65689,21.98502,73.8237,80.4491,81.51923,12.22789,1.60519,35.78664,1.51077,57.91328-4.02875-11.48824-2.94287-31.19135-9.74139-49.80856-26.29703-7.69554-6.84573-26.13966-23.66891-33.20572-51.19345l-.00002.00006h-.00002Z" style="fill: #a68530;"/>
          </g>
        </g>
      </g>
    </g>
  </g>
</svg>